<svg viewBox="0 0 95.6565 20.1541" fill="none" xmlns="http://www.w3.org/2000/svg" preserveAspectRatio="xMidYMid meet">
<g id="Logo Text">
<path id="Vector" d="M10.5389 12.7366V12.7322L3.86958 0.156213C3.7383 -0.0913287 3.37548 -0.0320421 3.32621 0.245L0.00478815 18.9225C-0.0277616 19.1055 0.109777 19.274 0.291753 19.274H2.86152C3.00252 19.274 3.12332 19.1709 3.14849 19.0291L5.08274 8.13108L10.2818 18.2642C10.391 18.4771 10.6891 18.4771 10.7983 18.2642L15.9974 8.13108L17.9316 19.0291C17.9568 19.1709 18.0776 19.274 18.2186 19.274H20.7883C20.9703 19.274 21.1078 19.1055 21.0753 18.9225L17.7539 0.245C17.7046 -0.0320421 17.3418 -0.0913287 17.2105 0.156213L10.5389 12.7366Z" fill="var(--fill-0, #FBFAF9)"/>
<path id="Vector_2" d="M31.8805 0.508301C26.5902 0.508301 22.4461 4.71124 22.4461 10.0778C22.4461 15.4443 26.5902 19.6496 31.8805 19.6496C37.1571 19.6496 41.291 15.4455 41.291 10.0778C41.291 4.71007 37.1571 0.508301 31.8805 0.508301ZM31.8805 16.4453C28.4307 16.4453 25.7278 13.6481 25.7278 10.0778C25.7278 6.50748 28.4307 3.71254 31.8805 3.71254C35.3167 3.71254 38.0093 6.50866 38.0093 10.0778C38.0093 13.6469 35.3167 16.4453 31.8805 16.4453Z" fill="var(--fill-0, #FBFAF9)"/>
<path id="Vector_3" d="M55.832 12.2727L44.7696 0.099492C44.5892 -0.0990309 44.2643 0.0314766 44.2643 0.302453V18.9759C44.2643 19.1406 44.3949 19.2741 44.5559 19.2741H47.2303C47.3914 19.2741 47.5219 19.1406 47.5219 18.9759V7.86158L58.5599 20.0578C58.7401 20.2569 59.0657 20.1265 59.0657 19.8553V1.18176C59.0657 1.01708 58.9351 0.883573 58.774 0.883573H56.1237C55.9626 0.883573 55.832 1.01708 55.832 1.18176V12.2727Z" fill="var(--fill-0, #FBFAF9)"/>
<path id="Vector_4" d="M61.9013 19.2742H64.7729C64.8867 19.2742 64.9901 19.2066 65.0377 19.101L67.1889 14.338H74.068L76.1707 19.0987C76.2178 19.2055 76.3218 19.2742 76.4365 19.2742H79.5523C79.7674 19.2742 79.9085 19.0442 79.8149 18.8462L70.9894 0.173944C70.8833 -0.050657 70.5704 -0.050657 70.4642 0.173944L61.6387 18.8462C61.5451 19.0442 61.6862 19.2742 61.9013 19.2742ZM68.5375 11.3828L70.6753 6.6396L72.7731 11.3828H68.5375Z" fill="var(--fill-0, #FBFAF9)"/>
<path id="Vector_5" d="M86.7859 0.883301H82.373C82.2119 0.883301 82.0813 1.01681 82.0813 1.18149V18.9756C82.0813 19.1403 82.2119 19.2738 82.373 19.2738H86.7859C92.257 19.2738 95.6565 15.7503 95.6565 10.0774C95.6565 4.40447 92.257 0.883301 86.7859 0.883301ZM86.7859 16.1187H85.363V4.01387H86.7859C90.3376 4.01387 92.3748 6.2241 92.3748 10.0774C92.3748 13.9166 90.3376 16.1187 86.7859 16.1187Z" fill="var(--fill-0, #FBFAF9)"/>
</g>
</svg>
